<?xml version="1.0" encoding="UTF-8" standalone="no"?>
<svg xmlns="http://www.w3.org/2000/svg" xmlns:xlink="http://www.w3.org/1999/xlink" width="600" height="480"><desc>Produced by GNUPLOT 4.2 patchlevel 0</desc><defs><path id="a" d="M-1-1h2v2h-2z" style="stroke-width:.148"/><path id="c" d="m0-1.33-1.33 2h2.66z" style="stroke-width:.148"/><use xlink:href="#c" id="d" transform="rotate(180)"/><use xlink:href="#a" id="e" transform="rotate(45)"/><circle id="b" cx="0" cy="0" r="1" style="stroke-width:.148"/></defs><g style="fill:none;color:#000;stroke:currentColor;stroke-width:1;stroke-linecap:butt;stroke-linejoin:miter"><path d="M63.9 410.6h13.5m483.9 0h-13.5"/><text style="stroke:none;fill:#000;font-family:Bitstream Vera Sans;font-size:18;text-anchor:end" transform="translate(51.3 417.3)">−6</text><path d="M63.9 348.9h13.5m483.9 0h-13.5"/><text style="stroke:none;fill:#000;font-family:Bitstream Vera Sans;font-size:18;text-anchor:end" transform="translate(51.3 355.6)">−4</text><path d="M63.9 287.3h13.5m483.9 0h-13.5"/><text style="stroke:none;fill:#000;font-family:Bitstream Vera Sans;font-size:18;text-anchor:end" transform="translate(51.3 294)">−2</text><path d="M63.9 225.6h13.5m483.9 0h-13.5"/><text style="stroke:none;fill:#000;font-family:Bitstream Vera Sans;font-size:18;text-anchor:end" transform="translate(51.3 232.3)"> 0</text><path d="M63.9 163.9h13.5m483.9 0h-13.5"/><text style="stroke:none;fill:#000;font-family:Bitstream Vera Sans;font-size:18;text-anchor:end" transform="translate(51.3 170.6)"> 2</text><path d="M63.9 102.3h13.5m483.9 0h-13.5"/><text style="stroke:none;fill:#000;font-family:Bitstream Vera Sans;font-size:18;text-anchor:end" transform="translate(51.3 109)"> 4</text><path d="M63.9 40.6h13.5m483.9 0h-13.5"/><text style="stroke:none;fill:#000;font-family:Bitstream Vera Sans;font-size:18;text-anchor:end" transform="translate(51.3 47.3)"> 6</text><path d="M63.9 426v-13.5m0-387.3v13.5"/><text style="stroke:none;fill:#000;font-family:Bitstream Vera Sans;font-size:18;text-anchor:middle" transform="translate(63.9 459.7)"> 0</text><path d="M146.8 426v-13.5m0-387.3v13.5"/><text style="stroke:none;fill:#000;font-family:Bitstream Vera Sans;font-size:18;text-anchor:middle" transform="translate(146.8 459.7)"> 0.2</text><path d="M229.7 426v-13.5m0-387.3v13.5"/><text style="stroke:none;fill:#000;font-family:Bitstream Vera Sans;font-size:18;text-anchor:middle" transform="translate(229.7 459.7)"> 0.4</text><path d="M312.6 426v-13.5m0-387.3v13.5"/><text style="stroke:none;fill:#000;font-family:Bitstream Vera Sans;font-size:18;text-anchor:middle" transform="translate(312.6 459.7)"> 0.6</text><path d="M395.5 426v-13.5m0-387.3v13.5"/><text style="stroke:none;fill:#000;font-family:Bitstream Vera Sans;font-size:18;text-anchor:middle" transform="translate(395.5 459.7)"> 0.8</text><path d="M478.4 426v-13.5m0-387.3v13.5"/><text style="stroke:none;fill:#000;font-family:Bitstream Vera Sans;font-size:18;text-anchor:middle" transform="translate(478.4 459.7)"> 1</text><path d="M561.3 426v-13.5m0-387.3v13.5"/><text style="stroke:none;fill:#000;font-family:Bitstream Vera Sans;font-size:18;text-anchor:middle" transform="translate(561.3 459.7)"> 1.2</text></g><path d="M63.9 225.6h497.4M63.9 426V25.2" style="fill:none;color:gray;stroke:currentColor;stroke-width:1;stroke-linecap:butt;stroke-linejoin:miter"/><g style="fill:none;color:#000;stroke:currentColor;stroke-width:1;stroke-linecap:butt;stroke-linejoin:miter"><path d="M63.9 25.2V426h497.4V25.2z"/><text style="stroke:none;fill:#bc1e47;font-family:Bitstream Vera Sans;font-size:22;text-anchor:start" transform="translate(146.8 97.3)">global maximum</text><text style="stroke:none;fill:#bc1e47;font-family:Bitstream Vera Sans;font-size:22;text-anchor:start" transform="translate(228.4 376.3)">global minimum</text><text style="stroke:none;fill:#0081cd;font-family:Bitstream Vera Sans;font-size:22;text-anchor:end" transform="translate(291.7 139.2)">local maximum</text><text style="stroke:none;fill:#0081cd;font-family:Bitstream Vera Sans;font-size:22;text-anchor:end" transform="translate(432.2 309.6)">local minimum</text><path fill="currentColor" d="m117.3 53.3 2.4-3.2-14.3-5.7 9.6 12.1z" style="stroke:none;shape-rendering:crispEdges"/><path d="m117.3 53.3 2.4-3.2-14.3-5.7 9.6 12.1 2.3-3.2m29.5 21.9-29.5-21.9"/><path fill="currentColor" d="m198.9 332.3 2.4-3.2-14.3-5.7 9.6 12.1z" style="stroke:none;shape-rendering:crispEdges"/><path d="m198.9 332.3 2.4-3.2-14.3-5.7 9.6 12.1 2.3-3.2m29.5 21.9-29.5-21.9"/><path fill="currentColor" d="m321.2 169.9-2.4 3.2 14.3 5.7-9.5-12.1z" style="stroke:none;shape-rendering:crispEdges"/><path d="m321.2 169.9-2.4 3.2 14.3 5.7-9.5-12.1-2.4 3.2m-29.5-22 29.5 22"/><path fill="currentColor" d="m461.7 265.5 2.4 3.2 9.6-12.1-14.4 5.7z" style="stroke:none;shape-rendering:crispEdges"/><path d="m461.7 265.5 2.4 3.2 9.6-12.1-14.4 5.7 2.4 3.2m-29.5 21.9 29.5-21.9"/></g><path d="m105.4 44.4 4.1 38.9 4.2 33.5 4.2 29.3 4.2 25.7 4.2 22.7 4.2 20.1 4.2 17.9 4.1 15.8 4.2 13.9 4.2 12.2 4.2 10.6 4.2 9.1 4.2 7.8 4.2 6.4 4.2 5.2 4.1 4 4.2 3 4.2 1.9 4.2.9h4.2l4.2-.9 4.2-1.6 4.1-2.4 4.2-3.1 4.2-3.7 4.2-4.2 4.2-4.7 4.2-5.2 4.2-5.5 4.2-5.8 4.1-6.1 4.2-6.3 4.2-6.4 4.2-6.5 4.2-6.5 4.2-6.5 4.2-6.4 4.2-6.2 4.1-6.1 4.2-5.9 4.2-5.7 4.2-5.3 4.2-5.1 4.2-4.6 4.2-4.3 4.1-3.9 4.2-3.5 4.2-3.1 4.2-2.6 4.2-2.2 4.2-1.7 4.2-1.3 4.2-.8 4.1-.4h4.2l4.2.5 4.2.8 4.2 1.3 4.2 1.6 4.2 1.9 4.1 2.2 4.2 2.6 4.2 2.7 4.2 3 4.2 3.2 4.2 3.4 4.2 3.4 4.2 3.6 4.1 3.6 4.2 3.6 4.2 3.7 4.2 3.6 4.2 3.5 4.2 3.4 4.2 3.3 4.2 3.2 4.1 3 4.2 2.8 4.2 2.5 4.2 2.4 4.2 2.1 4.2 1.8 4.2 1.6 4.1 1.2 4.2 1 4.2.8 4.2.4 4.2.1 4.2-.1 4.2-.5 4.2-.6 4.1-1 4.2-1.2 4.2-1.4 4.2-1.6 4.2-1.8 4.2-1.9 4.2-2.2 4.2-2.2" style="fill:none;color:#000;stroke:currentColor;stroke-width:3;stroke-linecap:butt;stroke-linejoin:miter"/><path d="M63.9 25.2V426h497.4V25.2z" style="fill:none;color:#000;stroke:currentColor;stroke-width:1;stroke-linecap:butt;stroke-linejoin:miter"/></svg>