<?xml version="1.0" encoding="UTF-8"?>
<svg xmlns="http://www.w3.org/2000/svg" xmlns:xlink="http://www.w3.org/1999/xlink" width="854pt" height="480pt" viewBox="0 0 854 480" version="1.1">
<defs>
<g>
<symbol overflow="visible" id="glyph0-0">
<path style="stroke:none;" d="M 0.359375 1.28125 L 0.359375 -5.09375 L 3.96875 -5.09375 L 3.96875 1.28125 Z M 0.765625 0.875 L 3.5625 0.875 L 3.5625 -4.6875 L 0.765625 -4.6875 Z "/>
</symbol>
<symbol overflow="visible" id="glyph0-1">
<path style="stroke:none;" d="M 0.703125 -5.046875 C 0.972656 -5.148438 1.234375 -5.226562 1.484375 -5.28125 C 1.742188 -5.332031 1.984375 -5.359375 2.203125 -5.359375 C 2.710938 -5.359375 3.113281 -5.242188 3.40625 -5.015625 C 3.695312 -4.796875 3.84375 -4.488281 3.84375 -4.09375 C 3.84375 -3.78125 3.742188 -3.515625 3.546875 -3.296875 C 3.347656 -3.085938 3.0625 -2.945312 2.6875 -2.875 C 3.125 -2.8125 3.460938 -2.648438 3.703125 -2.390625 C 3.941406 -2.140625 4.0625 -1.816406 4.0625 -1.421875 C 4.0625 -0.929688 3.894531 -0.550781 3.5625 -0.28125 C 3.226562 -0.0195312 2.753906 0.109375 2.140625 0.109375 C 1.859375 0.109375 1.585938 0.078125 1.328125 0.015625 C 1.066406 -0.046875 0.804688 -0.132812 0.546875 -0.25 L 0.546875 -1.28125 L 0.9375 -1.28125 C 0.96875 -0.9375 1.082031 -0.675781 1.28125 -0.5 C 1.488281 -0.332031 1.78125 -0.25 2.15625 -0.25 C 2.507812 -0.25 2.789062 -0.351562 3 -0.5625 C 3.207031 -0.769531 3.3125 -1.050781 3.3125 -1.40625 C 3.3125 -1.820312 3.203125 -2.132812 2.984375 -2.34375 C 2.773438 -2.5625 2.460938 -2.671875 2.046875 -2.671875 L 1.71875 -2.671875 L 1.71875 -3.03125 L 1.890625 -3.03125 C 2.304688 -3.03125 2.613281 -3.113281 2.8125 -3.28125 C 3.019531 -3.457031 3.125 -3.71875 3.125 -4.0625 C 3.125 -4.363281 3.039062 -4.597656 2.875 -4.765625 C 2.707031 -4.929688 2.460938 -5.015625 2.140625 -5.015625 C 1.828125 -5.015625 1.582031 -4.9375 1.40625 -4.78125 C 1.226562 -4.632812 1.125 -4.410156 1.09375 -4.109375 L 0.703125 -4.109375 Z "/>
</symbol>
<symbol overflow="visible" id="glyph0-2">
<path style="stroke:none;" d="M 0.6875 -0.359375 C 0.6875 -0.492188 0.726562 -0.609375 0.8125 -0.703125 C 0.90625 -0.796875 1.019531 -0.84375 1.15625 -0.84375 C 1.28125 -0.84375 1.390625 -0.796875 1.484375 -0.703125 C 1.578125 -0.609375 1.625 -0.492188 1.625 -0.359375 C 1.625 -0.234375 1.578125 -0.125 1.484375 -0.03125 C 1.390625 0.0585938 1.28125 0.109375 1.15625 0.109375 C 1.019531 0.109375 0.90625 0.0585938 0.8125 -0.03125 C 0.726562 -0.125 0.6875 -0.234375 0.6875 -0.359375 Z "/>
</symbol>
<symbol overflow="visible" id="glyph0-3">
<path style="stroke:none;" d=""/>
</symbol>
<symbol overflow="visible" id="glyph0-4">
<path style="stroke:none;" d="M 0.390625 0 L 0.390625 -0.375 L 1.0625 -0.375 L 1.0625 -4.890625 L 0.390625 -4.890625 L 0.390625 -5.265625 L 2.453125 -5.265625 L 2.453125 -4.890625 L 1.78125 -4.890625 L 1.78125 -0.4375 L 4.1875 -0.4375 L 4.1875 -1.3125 L 4.625 -1.3125 L 4.625 0 Z "/>
</symbol>
<symbol overflow="visible" id="glyph0-5">
<path style="stroke:none;" d="M 2.875 -1.171875 L 2.875 -1.96875 L 2.03125 -1.96875 C 1.707031 -1.96875 1.46875 -1.894531 1.3125 -1.75 C 1.15625 -1.613281 1.078125 -1.40625 1.078125 -1.125 C 1.078125 -0.863281 1.15625 -0.65625 1.3125 -0.5 C 1.476562 -0.351562 1.695312 -0.28125 1.96875 -0.28125 C 2.238281 -0.28125 2.457031 -0.363281 2.625 -0.53125 C 2.789062 -0.695312 2.875 -0.910156 2.875 -1.171875 Z M 3.515625 -2.34375 L 3.515625 -0.375 L 4.09375 -0.375 L 4.09375 0 L 2.875 0 L 2.875 -0.40625 C 2.726562 -0.226562 2.5625 -0.0976562 2.375 -0.015625 C 2.1875 0.0664062 1.96875 0.109375 1.71875 0.109375 C 1.300781 0.109375 0.96875 0 0.71875 -0.21875 C 0.476562 -0.445312 0.359375 -0.75 0.359375 -1.125 C 0.359375 -1.507812 0.5 -1.804688 0.78125 -2.015625 C 1.0625 -2.234375 1.457031 -2.34375 1.96875 -2.34375 L 2.875 -2.34375 L 2.875 -2.609375 C 2.875 -2.890625 2.785156 -3.109375 2.609375 -3.265625 C 2.441406 -3.421875 2.203125 -3.5 1.890625 -3.5 C 1.628906 -3.5 1.421875 -3.4375 1.265625 -3.3125 C 1.117188 -3.195312 1.023438 -3.023438 0.984375 -2.796875 L 0.65625 -2.796875 L 0.65625 -3.5625 C 0.875 -3.65625 1.085938 -3.722656 1.296875 -3.765625 C 1.515625 -3.816406 1.722656 -3.84375 1.921875 -3.84375 C 2.441406 -3.84375 2.835938 -3.710938 3.109375 -3.453125 C 3.378906 -3.203125 3.515625 -2.832031 3.515625 -2.34375 Z "/>
</symbol>
<symbol overflow="visible" id="glyph0-6">
<path style="stroke:none;" d="M 3.71875 -1.125 C 3.625 -0.726562 3.445312 -0.421875 3.1875 -0.203125 C 2.925781 0.00390625 2.585938 0.109375 2.171875 0.109375 C 1.628906 0.109375 1.191406 -0.0703125 0.859375 -0.4375 C 0.523438 -0.800781 0.359375 -1.28125 0.359375 -1.875 C 0.359375 -2.476562 0.523438 -2.957031 0.859375 -3.3125 C 1.191406 -3.664062 1.628906 -3.84375 2.171875 -3.84375 C 2.410156 -3.84375 2.644531 -3.816406 2.875 -3.765625 C 3.113281 -3.710938 3.351562 -3.628906 3.59375 -3.515625 L 3.59375 -2.5625 L 3.21875 -2.5625 C 3.164062 -2.882812 3.054688 -3.117188 2.890625 -3.265625 C 2.722656 -3.421875 2.484375 -3.5 2.171875 -3.5 C 1.828125 -3.5 1.566406 -3.363281 1.390625 -3.09375 C 1.210938 -2.820312 1.125 -2.414062 1.125 -1.875 C 1.125 -1.332031 1.210938 -0.925781 1.390625 -0.65625 C 1.566406 -0.382812 1.828125 -0.25 2.171875 -0.25 C 2.453125 -0.25 2.675781 -0.320312 2.84375 -0.46875 C 3.007812 -0.613281 3.125 -0.832031 3.1875 -1.125 Z "/>
</symbol>
<symbol overflow="visible" id="glyph0-7">
<path style="stroke:none;" d="M 2.171875 -0.25 C 2.515625 -0.25 2.773438 -0.382812 2.953125 -0.65625 C 3.128906 -0.9375 3.21875 -1.34375 3.21875 -1.875 C 3.21875 -2.40625 3.128906 -2.804688 2.953125 -3.078125 C 2.773438 -3.359375 2.515625 -3.5 2.171875 -3.5 C 1.828125 -3.5 1.566406 -3.359375 1.390625 -3.078125 C 1.210938 -2.804688 1.125 -2.40625 1.125 -1.875 C 1.125 -1.34375 1.210938 -0.9375 1.390625 -0.65625 C 1.566406 -0.382812 1.828125 -0.25 2.171875 -0.25 Z M 2.171875 0.109375 C 1.628906 0.109375 1.191406 -0.0703125 0.859375 -0.4375 C 0.523438 -0.800781 0.359375 -1.28125 0.359375 -1.875 C 0.359375 -2.46875 0.519531 -2.941406 0.84375 -3.296875 C 1.175781 -3.660156 1.617188 -3.84375 2.171875 -3.84375 C 2.722656 -3.84375 3.160156 -3.660156 3.484375 -3.296875 C 3.816406 -2.941406 3.984375 -2.46875 3.984375 -1.875 C 3.984375 -1.28125 3.816406 -0.800781 3.484375 -0.4375 C 3.160156 -0.0703125 2.722656 0.109375 2.171875 0.109375 Z "/>
</symbol>
<symbol overflow="visible" id="glyph0-8">
<path style="stroke:none;" d="M 0.296875 0 L 0.296875 -0.375 L 0.875 -0.375 L 0.875 -3.375 L 0.265625 -3.375 L 0.265625 -3.75 L 1.53125 -3.75 L 1.53125 -3.078125 C 1.644531 -3.335938 1.796875 -3.53125 1.984375 -3.65625 C 2.179688 -3.78125 2.410156 -3.84375 2.671875 -3.84375 C 3.078125 -3.84375 3.378906 -3.722656 3.578125 -3.484375 C 3.773438 -3.253906 3.875 -2.882812 3.875 -2.375 L 3.875 -0.375 L 4.453125 -0.375 L 4.453125 0 L 2.65625 0 L 2.65625 -0.375 L 3.21875 -0.375 L 3.21875 -2.171875 C 3.21875 -2.628906 3.160156 -2.941406 3.046875 -3.109375 C 2.929688 -3.285156 2.734375 -3.375 2.453125 -3.375 C 2.148438 -3.375 1.921875 -3.265625 1.765625 -3.046875 C 1.609375 -2.828125 1.53125 -2.507812 1.53125 -2.09375 L 1.53125 -0.375 L 2.09375 -0.375 L 2.09375 0 Z "/>
</symbol>
<symbol overflow="visible" id="glyph0-9">
<path style="stroke:none;" d="M 1.78125 0 L 0.40625 -3.375 L -0.015625 -3.375 L -0.015625 -3.75 L 1.703125 -3.75 L 1.703125 -3.375 L 1.109375 -3.375 L 2.15625 -0.796875 L 3.21875 -3.375 L 2.65625 -3.375 L 2.65625 -3.75 L 4.0625 -3.75 L 4.0625 -3.375 L 3.640625 -3.375 L 2.265625 0 Z "/>
</symbol>
<symbol overflow="visible" id="glyph0-10">
<path style="stroke:none;" d="M 3.90625 -1.8125 L 1.125 -1.8125 L 1.125 -1.78125 C 1.125 -1.269531 1.21875 -0.882812 1.40625 -0.625 C 1.59375 -0.375 1.875 -0.25 2.25 -0.25 C 2.53125 -0.25 2.757812 -0.320312 2.9375 -0.46875 C 3.125 -0.613281 3.253906 -0.835938 3.328125 -1.140625 L 3.84375 -1.140625 C 3.738281 -0.722656 3.546875 -0.410156 3.265625 -0.203125 C 2.992188 0.00390625 2.628906 0.109375 2.171875 0.109375 C 1.628906 0.109375 1.191406 -0.0703125 0.859375 -0.4375 C 0.523438 -0.800781 0.359375 -1.28125 0.359375 -1.875 C 0.359375 -2.46875 0.519531 -2.941406 0.84375 -3.296875 C 1.175781 -3.660156 1.609375 -3.84375 2.140625 -3.84375 C 2.703125 -3.84375 3.132812 -3.664062 3.4375 -3.3125 C 3.738281 -2.96875 3.894531 -2.46875 3.90625 -1.8125 Z M 3.140625 -2.171875 C 3.128906 -2.609375 3.035156 -2.9375 2.859375 -3.15625 C 2.691406 -3.382812 2.453125 -3.5 2.140625 -3.5 C 1.835938 -3.5 1.597656 -3.382812 1.421875 -3.15625 C 1.253906 -2.9375 1.15625 -2.609375 1.125 -2.171875 Z "/>
</symbol>
<symbol overflow="visible" id="glyph0-11">
<path style="stroke:none;" d="M 3.453125 -3.75 L 3.453125 -2.8125 L 3.078125 -2.8125 C 3.066406 -3 3.015625 -3.140625 2.921875 -3.234375 C 2.828125 -3.328125 2.691406 -3.375 2.515625 -3.375 C 2.203125 -3.375 1.957031 -3.257812 1.78125 -3.03125 C 1.613281 -2.8125 1.53125 -2.5 1.53125 -2.09375 L 1.53125 -0.375 L 2.28125 -0.375 L 2.28125 0 L 0.296875 0 L 0.296875 -0.375 L 0.875 -0.375 L 0.875 -3.375 L 0.265625 -3.375 L 0.265625 -3.75 L 1.53125 -3.75 L 1.53125 -3.078125 C 1.65625 -3.335938 1.816406 -3.53125 2.015625 -3.65625 C 2.210938 -3.78125 2.457031 -3.84375 2.75 -3.84375 C 2.851562 -3.84375 2.960938 -3.832031 3.078125 -3.8125 C 3.191406 -3.800781 3.316406 -3.78125 3.453125 -3.75 Z "/>
</symbol>
<symbol overflow="visible" id="glyph0-12">
<path style="stroke:none;" d="M 0.40625 -0.203125 L 0.40625 -1.078125 L 0.78125 -1.078125 C 0.789062 -0.796875 0.878906 -0.585938 1.046875 -0.453125 C 1.210938 -0.316406 1.457031 -0.25 1.78125 -0.25 C 2.070312 -0.25 2.289062 -0.300781 2.4375 -0.40625 C 2.59375 -0.519531 2.671875 -0.679688 2.671875 -0.890625 C 2.671875 -1.054688 2.613281 -1.1875 2.5 -1.28125 C 2.394531 -1.382812 2.160156 -1.492188 1.796875 -1.609375 L 1.328125 -1.765625 C 1.003906 -1.867188 0.769531 -2 0.625 -2.15625 C 0.476562 -2.3125 0.40625 -2.507812 0.40625 -2.75 C 0.40625 -3.09375 0.53125 -3.359375 0.78125 -3.546875 C 1.039062 -3.742188 1.390625 -3.84375 1.828125 -3.84375 C 2.023438 -3.84375 2.234375 -3.816406 2.453125 -3.765625 C 2.671875 -3.710938 2.898438 -3.640625 3.140625 -3.546875 L 3.140625 -2.734375 L 2.765625 -2.734375 C 2.753906 -2.972656 2.664062 -3.160156 2.5 -3.296875 C 2.34375 -3.429688 2.128906 -3.5 1.859375 -3.5 C 1.578125 -3.5 1.367188 -3.453125 1.234375 -3.359375 C 1.097656 -3.265625 1.03125 -3.117188 1.03125 -2.921875 C 1.03125 -2.765625 1.082031 -2.640625 1.1875 -2.546875 C 1.289062 -2.453125 1.5 -2.351562 1.8125 -2.25 L 2.328125 -2.09375 C 2.679688 -1.976562 2.9375 -1.835938 3.09375 -1.671875 C 3.25 -1.515625 3.328125 -1.304688 3.328125 -1.046875 C 3.328125 -0.679688 3.191406 -0.394531 2.921875 -0.1875 C 2.648438 0.0078125 2.28125 0.109375 1.8125 0.109375 C 1.5625 0.109375 1.320312 0.0820312 1.09375 0.03125 C 0.863281 -0.0195312 0.632812 -0.0976562 0.40625 -0.203125 Z "/>
</symbol>
<symbol overflow="visible" id="glyph0-13">
<path style="stroke:none;" d="M 0.703125 -4.90625 C 0.703125 -5.019531 0.738281 -5.113281 0.8125 -5.1875 C 0.894531 -5.269531 0.992188 -5.3125 1.109375 -5.3125 C 1.210938 -5.3125 1.300781 -5.269531 1.375 -5.1875 C 1.457031 -5.113281 1.5 -5.019531 1.5 -4.90625 C 1.5 -4.800781 1.457031 -4.707031 1.375 -4.625 C 1.300781 -4.550781 1.210938 -4.515625 1.109375 -4.515625 C 0.992188 -4.515625 0.894531 -4.550781 0.8125 -4.625 C 0.738281 -4.707031 0.703125 -4.800781 0.703125 -4.90625 Z M 1.53125 -0.375 L 2.140625 -0.375 L 2.140625 0 L 0.265625 0 L 0.265625 -0.375 L 0.875 -0.375 L 0.875 -3.375 L 0.265625 -3.375 L 0.265625 -3.75 L 1.53125 -3.75 Z "/>
</symbol>
<symbol overflow="visible" id="glyph0-14">
<path style="stroke:none;" d="M 2.171875 -0.25 C 2.515625 -0.25 2.773438 -0.382812 2.953125 -0.65625 C 3.128906 -0.9375 3.21875 -1.34375 3.21875 -1.875 C 3.21875 -2.40625 3.128906 -2.804688 2.953125 -3.078125 C 2.773438 -3.359375 2.515625 -3.5 2.171875 -3.5 C 1.828125 -3.5 1.566406 -3.359375 1.390625 -3.078125 C 1.210938 -2.804688 1.125 -2.40625 1.125 -1.875 C 1.125 -1.34375 1.210938 -0.9375 1.390625 -0.65625 C 1.566406 -0.382812 1.828125 -0.25 2.171875 -0.25 Z M 2.171875 0.109375 C 1.628906 0.109375 1.191406 -0.0703125 0.859375 -0.4375 C 0.523438 -0.800781 0.359375 -1.28125 0.359375 -1.875 C 0.359375 -2.46875 0.519531 -2.941406 0.84375 -3.296875 C 1.175781 -3.660156 1.617188 -3.84375 2.171875 -3.84375 C 2.722656 -3.84375 3.160156 -3.660156 3.484375 -3.296875 C 3.816406 -2.941406 3.984375 -2.46875 3.984375 -1.875 C 3.984375 -1.28125 3.816406 -0.800781 3.484375 -0.4375 C 3.160156 -0.0703125 2.722656 0.109375 2.171875 0.109375 Z M 2.65625 -5.78125 L 3.359375 -5.78125 L 2.15625 -4.453125 L 1.75 -4.453125 Z "/>
</symbol>
<symbol overflow="visible" id="glyph0-15">
<path style="stroke:none;" d="M 0.828125 -0.375 L 0.828125 -5.109375 L 0.203125 -5.109375 L 0.203125 -5.484375 L 1.484375 -5.484375 L 1.484375 -3.15625 C 1.609375 -3.394531 1.769531 -3.566406 1.96875 -3.671875 C 2.164062 -3.785156 2.40625 -3.84375 2.6875 -3.84375 C 3.15625 -3.84375 3.535156 -3.660156 3.828125 -3.296875 C 4.117188 -2.929688 4.265625 -2.457031 4.265625 -1.875 C 4.265625 -1.289062 4.117188 -0.8125 3.828125 -0.4375 C 3.535156 -0.0703125 3.15625 0.109375 2.6875 0.109375 C 2.40625 0.109375 2.164062 0.0507812 1.96875 -0.0625 C 1.769531 -0.175781 1.609375 -0.347656 1.484375 -0.578125 L 1.484375 0 L 0.203125 0 L 0.203125 -0.375 Z M 1.484375 -1.6875 C 1.484375 -1.238281 1.566406 -0.894531 1.734375 -0.65625 C 1.910156 -0.414062 2.160156 -0.296875 2.484375 -0.296875 C 2.816406 -0.296875 3.066406 -0.425781 3.234375 -0.6875 C 3.410156 -0.957031 3.5 -1.351562 3.5 -1.875 C 3.5 -2.394531 3.410156 -2.785156 3.234375 -3.046875 C 3.066406 -3.304688 2.816406 -3.4375 2.484375 -3.4375 C 2.160156 -3.4375 1.910156 -3.316406 1.734375 -3.078125 C 1.566406 -2.847656 1.484375 -2.507812 1.484375 -2.0625 Z "/>
</symbol>
<symbol overflow="visible" id="glyph0-16">
<path style="stroke:none;" d="M 1.484375 -0.375 L 2.09375 -0.375 L 2.09375 0 L 0.203125 0 L 0.203125 -0.375 L 0.828125 -0.375 L 0.828125 -5.109375 L 0.203125 -5.109375 L 0.203125 -5.484375 L 1.484375 -5.484375 Z "/>
</symbol>
</g>
</defs>
<g id="surface32">
<g style="fill:rgb(100%,59.607843%,0%);fill-opacity:1;">
  <use xlink:href="#glyph0-1" x="30" y="26.704102"/>
  <use xlink:href="#glyph0-2" x="35" y="26.704102"/>
  <use xlink:href="#glyph0-3" x="37" y="26.704102"/>
  <use xlink:href="#glyph0-4" x="39" y="26.704102"/>
  <use xlink:href="#glyph0-5" x="44" y="26.704102"/>
  <use xlink:href="#glyph0-3" x="48" y="26.704102"/>
  <use xlink:href="#glyph0-6" x="50" y="26.704102"/>
  <use xlink:href="#glyph0-7" x="54" y="26.704102"/>
  <use xlink:href="#glyph0-8" x="58" y="26.704102"/>
  <use xlink:href="#glyph0-9" x="63" y="26.704102"/>
  <use xlink:href="#glyph0-10" x="67" y="26.704102"/>
  <use xlink:href="#glyph0-11" x="71" y="26.704102"/>
  <use xlink:href="#glyph0-12" x="74" y="26.704102"/>
  <use xlink:href="#glyph0-13" x="78" y="26.704102"/>
  <use xlink:href="#glyph0-14" x="80" y="26.704102"/>
  <use xlink:href="#glyph0-8" x="84" y="26.704102"/>
  <use xlink:href="#glyph0-3" x="89" y="26.704102"/>
  <use xlink:href="#glyph0-10" x="91" y="26.704102"/>
  <use xlink:href="#glyph0-12" x="95" y="26.704102"/>
  <use xlink:href="#glyph0-3" x="99" y="26.704102"/>
  <use xlink:href="#glyph0-11" x="101" y="26.704102"/>
  <use xlink:href="#glyph0-10" x="104" y="26.704102"/>
  <use xlink:href="#glyph0-9" x="108" y="26.704102"/>
  <use xlink:href="#glyph0-10" x="112" y="26.704102"/>
  <use xlink:href="#glyph0-11" x="116" y="26.704102"/>
  <use xlink:href="#glyph0-12" x="119" y="26.704102"/>
  <use xlink:href="#glyph0-13" x="123" y="26.704102"/>
  <use xlink:href="#glyph0-15" x="125" y="26.704102"/>
  <use xlink:href="#glyph0-16" x="130" y="26.704102"/>
  <use xlink:href="#glyph0-10" x="132" y="26.704102"/>
</g>
</g>
</svg>
