<?xml version="1.0" encoding="UTF-8"?>
<svg xmlns="http://www.w3.org/2000/svg" xmlns:xlink="http://www.w3.org/1999/xlink" width="854pt" height="480pt" viewBox="0 0 854 480" version="1.1">
<defs>
<g>
<symbol overflow="visible" id="glyph0-0">
<path style="stroke:none;" d="M 0.359375 1.28125 L 0.359375 -5.09375 L 3.96875 -5.09375 L 3.96875 1.28125 Z M 0.765625 0.875 L 3.5625 0.875 L 3.5625 -4.6875 L 0.765625 -4.6875 Z "/>
</symbol>
<symbol overflow="visible" id="glyph0-1">
<path style="stroke:none;" d="M 1.03125 0 L 1.03125 -0.375 L 1.9375 -0.375 L 1.9375 -4.75 L 0.875 -4.0625 L 0.875 -4.53125 L 2.171875 -5.359375 L 2.65625 -5.359375 L 2.65625 -0.375 L 3.5625 -0.375 L 3.5625 0 Z "/>
</symbol>
<symbol overflow="visible" id="glyph0-2">
<path style="stroke:none;" d="M 0.6875 -0.359375 C 0.6875 -0.492188 0.726562 -0.609375 0.8125 -0.703125 C 0.90625 -0.796875 1.019531 -0.84375 1.15625 -0.84375 C 1.28125 -0.84375 1.390625 -0.796875 1.484375 -0.703125 C 1.578125 -0.609375 1.625 -0.492188 1.625 -0.359375 C 1.625 -0.234375 1.578125 -0.125 1.484375 -0.03125 C 1.390625 0.0585938 1.28125 0.109375 1.15625 0.109375 C 1.019531 0.109375 0.90625 0.0585938 0.8125 -0.03125 C 0.726562 -0.125 0.6875 -0.234375 0.6875 -0.359375 Z "/>
</symbol>
<symbol overflow="visible" id="glyph0-3">
<path style="stroke:none;" d=""/>
</symbol>
<symbol overflow="visible" id="glyph0-4">
<path style="stroke:none;" d="M 0.390625 0 L 0.390625 -0.375 L 1.0625 -0.375 L 1.0625 -4.890625 L 0.390625 -4.890625 L 0.390625 -5.265625 L 4.640625 -5.265625 L 4.640625 -4.09375 L 4.203125 -4.09375 L 4.203125 -4.828125 L 1.78125 -4.828125 L 1.78125 -3.0625 L 3.5 -3.0625 L 3.5 -3.71875 L 3.9375 -3.71875 L 3.9375 -1.984375 L 3.5 -1.984375 L 3.5 -2.640625 L 1.78125 -2.640625 L 1.78125 -0.4375 L 4.265625 -0.4375 L 4.265625 -1.171875 L 4.6875 -1.171875 L 4.6875 0 Z "/>
</symbol>
<symbol overflow="visible" id="glyph0-5">
<path style="stroke:none;" d="M 0.71875 -4.90625 C 0.71875 -5.019531 0.753906 -5.113281 0.828125 -5.1875 C 0.910156 -5.269531 1.007812 -5.3125 1.125 -5.3125 C 1.226562 -5.3125 1.316406 -5.269531 1.390625 -5.1875 C 1.472656 -5.113281 1.515625 -5.019531 1.515625 -4.90625 C 1.515625 -4.800781 1.476562 -4.707031 1.40625 -4.625 C 1.332031 -4.550781 1.238281 -4.515625 1.125 -4.515625 C 1.007812 -4.515625 0.910156 -4.550781 0.828125 -4.625 C 0.753906 -4.707031 0.71875 -4.800781 0.71875 -4.90625 Z M 0.875 -3.375 L 0.265625 -3.375 L 0.265625 -3.75 L 1.53125 -3.75 L 1.53125 0.359375 C 1.53125 0.742188 1.414062 1.046875 1.1875 1.265625 C 0.957031 1.492188 0.640625 1.609375 0.234375 1.609375 C 0.0664062 1.609375 -0.0859375 1.585938 -0.234375 1.546875 C -0.390625 1.503906 -0.539062 1.445312 -0.6875 1.375 L -0.6875 0.59375 L -0.359375 0.59375 C -0.335938 0.820312 -0.273438 0.988281 -0.171875 1.09375 C -0.078125 1.195312 0.0625 1.25 0.25 1.25 C 0.46875 1.25 0.625 1.175781 0.71875 1.03125 C 0.820312 0.894531 0.875 0.671875 0.875 0.359375 Z "/>
</symbol>
<symbol overflow="visible" id="glyph0-6">
<path style="stroke:none;" d="M 3.90625 -1.8125 L 1.125 -1.8125 L 1.125 -1.78125 C 1.125 -1.269531 1.21875 -0.882812 1.40625 -0.625 C 1.59375 -0.375 1.875 -0.25 2.25 -0.25 C 2.53125 -0.25 2.757812 -0.320312 2.9375 -0.46875 C 3.125 -0.613281 3.253906 -0.835938 3.328125 -1.140625 L 3.84375 -1.140625 C 3.738281 -0.722656 3.546875 -0.410156 3.265625 -0.203125 C 2.992188 0.00390625 2.628906 0.109375 2.171875 0.109375 C 1.628906 0.109375 1.191406 -0.0703125 0.859375 -0.4375 C 0.523438 -0.800781 0.359375 -1.28125 0.359375 -1.875 C 0.359375 -2.46875 0.519531 -2.941406 0.84375 -3.296875 C 1.175781 -3.660156 1.609375 -3.84375 2.140625 -3.84375 C 2.703125 -3.84375 3.132812 -3.664062 3.4375 -3.3125 C 3.738281 -2.96875 3.894531 -2.46875 3.90625 -1.8125 Z M 3.140625 -2.171875 C 3.128906 -2.609375 3.035156 -2.9375 2.859375 -3.15625 C 2.691406 -3.382812 2.453125 -3.5 2.140625 -3.5 C 1.835938 -3.5 1.597656 -3.382812 1.421875 -3.15625 C 1.253906 -2.9375 1.15625 -2.609375 1.125 -2.171875 Z "/>
</symbol>
<symbol overflow="visible" id="glyph0-7">
<path style="stroke:none;" d="M 3.734375 -3.015625 C 3.859375 -3.285156 4.019531 -3.488281 4.21875 -3.625 C 4.414062 -3.769531 4.640625 -3.84375 4.890625 -3.84375 C 5.285156 -3.84375 5.578125 -3.722656 5.765625 -3.484375 C 5.960938 -3.242188 6.0625 -2.875 6.0625 -2.375 L 6.0625 -0.375 L 6.640625 -0.375 L 6.640625 0 L 4.84375 0 L 4.84375 -0.375 L 5.421875 -0.375 L 5.421875 -2.3125 C 5.421875 -2.695312 5.363281 -2.96875 5.25 -3.125 C 5.132812 -3.289062 4.945312 -3.375 4.6875 -3.375 C 4.394531 -3.375 4.171875 -3.265625 4.015625 -3.046875 C 3.867188 -2.828125 3.796875 -2.507812 3.796875 -2.09375 L 3.796875 -0.375 L 4.359375 -0.375 L 4.359375 0 L 2.578125 0 L 2.578125 -0.375 L 3.140625 -0.375 L 3.140625 -2.328125 C 3.140625 -2.703125 3.082031 -2.96875 2.96875 -3.125 C 2.863281 -3.289062 2.679688 -3.375 2.421875 -3.375 C 2.128906 -3.375 1.90625 -3.265625 1.75 -3.046875 C 1.601562 -2.828125 1.53125 -2.507812 1.53125 -2.09375 L 1.53125 -0.375 L 2.09375 -0.375 L 2.09375 0 L 0.296875 0 L 0.296875 -0.375 L 0.875 -0.375 L 0.875 -3.375 L 0.265625 -3.375 L 0.265625 -3.75 L 1.53125 -3.75 L 1.53125 -3.078125 C 1.644531 -3.328125 1.796875 -3.515625 1.984375 -3.640625 C 2.171875 -3.773438 2.382812 -3.84375 2.625 -3.84375 C 2.914062 -3.84375 3.15625 -3.769531 3.34375 -3.625 C 3.539062 -3.488281 3.671875 -3.285156 3.734375 -3.015625 Z "/>
</symbol>
<symbol overflow="visible" id="glyph0-8">
<path style="stroke:none;" d="M 1.484375 -2.0625 L 1.484375 -1.6875 C 1.484375 -1.238281 1.566406 -0.894531 1.734375 -0.65625 C 1.910156 -0.414062 2.160156 -0.296875 2.484375 -0.296875 C 2.816406 -0.296875 3.066406 -0.425781 3.234375 -0.6875 C 3.410156 -0.957031 3.5 -1.351562 3.5 -1.875 C 3.5 -2.394531 3.410156 -2.785156 3.234375 -3.046875 C 3.066406 -3.304688 2.816406 -3.4375 2.484375 -3.4375 C 2.160156 -3.4375 1.910156 -3.316406 1.734375 -3.078125 C 1.566406 -2.847656 1.484375 -2.507812 1.484375 -2.0625 Z M 0.828125 -3.375 L 0.203125 -3.375 L 0.203125 -3.75 L 1.484375 -3.75 L 1.484375 -3.15625 C 1.609375 -3.394531 1.769531 -3.566406 1.96875 -3.671875 C 2.164062 -3.785156 2.40625 -3.84375 2.6875 -3.84375 C 3.15625 -3.84375 3.535156 -3.660156 3.828125 -3.296875 C 4.117188 -2.929688 4.265625 -2.457031 4.265625 -1.875 C 4.265625 -1.289062 4.117188 -0.8125 3.828125 -0.4375 C 3.535156 -0.0703125 3.15625 0.109375 2.6875 0.109375 C 2.40625 0.109375 2.164062 0.0507812 1.96875 -0.0625 C 1.769531 -0.175781 1.609375 -0.347656 1.484375 -0.578125 L 1.484375 1.125 L 2.09375 1.125 L 2.09375 1.5 L 0.203125 1.5 L 0.203125 1.125 L 0.828125 1.125 Z "/>
</symbol>
<symbol overflow="visible" id="glyph0-9">
<path style="stroke:none;" d="M 1.484375 -0.375 L 2.09375 -0.375 L 2.09375 0 L 0.203125 0 L 0.203125 -0.375 L 0.828125 -0.375 L 0.828125 -5.109375 L 0.203125 -5.109375 L 0.203125 -5.484375 L 1.484375 -5.484375 Z "/>
</symbol>
<symbol overflow="visible" id="glyph0-10">
<path style="stroke:none;" d="M 2.171875 -0.25 C 2.515625 -0.25 2.773438 -0.382812 2.953125 -0.65625 C 3.128906 -0.9375 3.21875 -1.34375 3.21875 -1.875 C 3.21875 -2.40625 3.128906 -2.804688 2.953125 -3.078125 C 2.773438 -3.359375 2.515625 -3.5 2.171875 -3.5 C 1.828125 -3.5 1.566406 -3.359375 1.390625 -3.078125 C 1.210938 -2.804688 1.125 -2.40625 1.125 -1.875 C 1.125 -1.34375 1.210938 -0.9375 1.390625 -0.65625 C 1.566406 -0.382812 1.828125 -0.25 2.171875 -0.25 Z M 2.171875 0.109375 C 1.628906 0.109375 1.191406 -0.0703125 0.859375 -0.4375 C 0.523438 -0.800781 0.359375 -1.28125 0.359375 -1.875 C 0.359375 -2.46875 0.519531 -2.941406 0.84375 -3.296875 C 1.175781 -3.660156 1.617188 -3.84375 2.171875 -3.84375 C 2.722656 -3.84375 3.160156 -3.660156 3.484375 -3.296875 C 3.816406 -2.941406 3.984375 -2.46875 3.984375 -1.875 C 3.984375 -1.28125 3.816406 -0.800781 3.484375 -0.4375 C 3.160156 -0.0703125 2.722656 0.109375 2.171875 0.109375 Z "/>
</symbol>
<symbol overflow="visible" id="glyph0-11">
<path style="stroke:none;" d="M 3.71875 -1.125 C 3.625 -0.726562 3.445312 -0.421875 3.1875 -0.203125 C 2.925781 0.00390625 2.585938 0.109375 2.171875 0.109375 C 1.628906 0.109375 1.191406 -0.0703125 0.859375 -0.4375 C 0.523438 -0.800781 0.359375 -1.28125 0.359375 -1.875 C 0.359375 -2.476562 0.523438 -2.957031 0.859375 -3.3125 C 1.191406 -3.664062 1.628906 -3.84375 2.171875 -3.84375 C 2.410156 -3.84375 2.644531 -3.816406 2.875 -3.765625 C 3.113281 -3.710938 3.351562 -3.628906 3.59375 -3.515625 L 3.59375 -2.5625 L 3.21875 -2.5625 C 3.164062 -2.882812 3.054688 -3.117188 2.890625 -3.265625 C 2.722656 -3.421875 2.484375 -3.5 2.171875 -3.5 C 1.828125 -3.5 1.566406 -3.363281 1.390625 -3.09375 C 1.210938 -2.820312 1.125 -2.414062 1.125 -1.875 C 1.125 -1.332031 1.210938 -0.925781 1.390625 -0.65625 C 1.566406 -0.382812 1.828125 -0.25 2.171875 -0.25 C 2.453125 -0.25 2.675781 -0.320312 2.84375 -0.46875 C 3.007812 -0.613281 3.125 -0.832031 3.1875 -1.125 Z "/>
</symbol>
<symbol overflow="visible" id="glyph0-12">
<path style="stroke:none;" d="M 0.296875 0 L 0.296875 -0.375 L 0.875 -0.375 L 0.875 -3.375 L 0.265625 -3.375 L 0.265625 -3.75 L 1.53125 -3.75 L 1.53125 -3.078125 C 1.644531 -3.335938 1.796875 -3.53125 1.984375 -3.65625 C 2.179688 -3.78125 2.410156 -3.84375 2.671875 -3.84375 C 3.078125 -3.84375 3.378906 -3.722656 3.578125 -3.484375 C 3.773438 -3.253906 3.875 -2.882812 3.875 -2.375 L 3.875 -0.375 L 4.453125 -0.375 L 4.453125 0 L 2.65625 0 L 2.65625 -0.375 L 3.21875 -0.375 L 3.21875 -2.171875 C 3.21875 -2.628906 3.160156 -2.941406 3.046875 -3.109375 C 2.929688 -3.285156 2.734375 -3.375 2.453125 -3.375 C 2.148438 -3.375 1.921875 -3.265625 1.765625 -3.046875 C 1.609375 -2.828125 1.53125 -2.507812 1.53125 -2.09375 L 1.53125 -0.375 L 2.09375 -0.375 L 2.09375 0 Z "/>
</symbol>
<symbol overflow="visible" id="glyph0-13">
<path style="stroke:none;" d="M 3.453125 -3.75 L 3.453125 -2.8125 L 3.078125 -2.8125 C 3.066406 -3 3.015625 -3.140625 2.921875 -3.234375 C 2.828125 -3.328125 2.691406 -3.375 2.515625 -3.375 C 2.203125 -3.375 1.957031 -3.257812 1.78125 -3.03125 C 1.613281 -2.8125 1.53125 -2.5 1.53125 -2.09375 L 1.53125 -0.375 L 2.28125 -0.375 L 2.28125 0 L 0.296875 0 L 0.296875 -0.375 L 0.875 -0.375 L 0.875 -3.375 L 0.265625 -3.375 L 0.265625 -3.75 L 1.53125 -3.75 L 1.53125 -3.078125 C 1.65625 -3.335938 1.816406 -3.53125 2.015625 -3.65625 C 2.210938 -3.78125 2.457031 -3.84375 2.75 -3.84375 C 2.851562 -3.84375 2.960938 -3.832031 3.078125 -3.8125 C 3.191406 -3.800781 3.316406 -3.78125 3.453125 -3.75 Z "/>
</symbol>
<symbol overflow="visible" id="glyph0-14">
<path style="stroke:none;" d="M 0.78125 -3.375 L 0.203125 -3.375 L 0.203125 -3.75 L 0.78125 -3.75 L 0.78125 -4.90625 L 1.4375 -4.90625 L 1.4375 -3.75 L 2.65625 -3.75 L 2.65625 -3.375 L 1.4375 -3.375 L 1.4375 -0.984375 C 1.4375 -0.671875 1.460938 -0.46875 1.515625 -0.375 C 1.578125 -0.289062 1.691406 -0.25 1.859375 -0.25 C 2.023438 -0.25 2.144531 -0.296875 2.21875 -0.390625 C 2.300781 -0.492188 2.347656 -0.65625 2.359375 -0.875 L 2.84375 -0.875 C 2.820312 -0.539062 2.726562 -0.289062 2.5625 -0.125 C 2.394531 0.0273438 2.144531 0.109375 1.8125 0.109375 C 1.4375 0.109375 1.171875 0.0234375 1.015625 -0.140625 C 0.859375 -0.304688 0.78125 -0.585938 0.78125 -0.984375 Z "/>
</symbol>
</g>
</defs>
<g id="surface7">
<g style="fill:rgb(100%,59.607843%,0%);fill-opacity:1;">
  <use xlink:href="#glyph0-1" x="30" y="26.704102"/>
  <use xlink:href="#glyph0-2" x="35" y="26.704102"/>
  <use xlink:href="#glyph0-3" x="37" y="26.704102"/>
  <use xlink:href="#glyph0-4" x="39" y="26.704102"/>
  <use xlink:href="#glyph0-5" x="44" y="26.704102"/>
  <use xlink:href="#glyph0-6" x="46" y="26.704102"/>
  <use xlink:href="#glyph0-7" x="50" y="26.704102"/>
  <use xlink:href="#glyph0-8" x="57" y="26.704102"/>
  <use xlink:href="#glyph0-9" x="62" y="26.704102"/>
  <use xlink:href="#glyph0-10" x="64" y="26.704102"/>
  <use xlink:href="#glyph0-3" x="68" y="26.704102"/>
  <use xlink:href="#glyph0-11" x="70" y="26.704102"/>
  <use xlink:href="#glyph0-10" x="74" y="26.704102"/>
  <use xlink:href="#glyph0-12" x="78" y="26.704102"/>
  <use xlink:href="#glyph0-11" x="83" y="26.704102"/>
  <use xlink:href="#glyph0-13" x="87" y="26.704102"/>
  <use xlink:href="#glyph0-6" x="90" y="26.704102"/>
  <use xlink:href="#glyph0-14" x="94" y="26.704102"/>
  <use xlink:href="#glyph0-10" x="97" y="26.704102"/>
</g>
</g>
</svg>
