<?xml version="1.0" encoding="utf-8"?>
<!-- Generator: Adobe Illustrator 12.0.1, SVG Export Plug-In . SVG Version: 6.00 Build 51448)  -->
<!DOCTYPE svg PUBLIC "-//W3C//DTD SVG 1.1//EN" "http://www.w3.org/Graphics/SVG/1.1/DTD/svg11.dtd" [
	<!ENTITY ns_svg "http://www.w3.org/2000/svg">
	<!ENTITY ns_xlink "http://www.w3.org/1999/xlink">
]>
<svg  version="1.1" id="Layer_2" xmlns="&ns_svg;" xmlns:xlink="&ns_xlink;" width="500" height="360" viewBox="0 0 500 360"
	 style="overflow:visible;enable-background:new 0 0 500 360;" xml:space="preserve">
<radialGradient id="XMLID_11_" cx="308.7373" cy="227.0991" r="165.9884" gradientTransform="matrix(0.9936 0 0 0.9936 1.608 1.1033)" gradientUnits="userSpaceOnUse">
	<stop  offset="0" style="stop-color:#FF8362"/>
	<stop  offset="0.1754" style="stop-color:#FF7F5F"/>
	<stop  offset="0.3503" style="stop-color:#FF7356"/>
	<stop  offset="0.5251" style="stop-color:#FF5F47"/>
	<stop  offset="0.7" style="stop-color:#FF4332"/>

	<stop  offset="0.8732" style="stop-color:#FF1F17"/>
	<stop  offset="1" style="stop-color:#FF0000"/>
</radialGradient>
<circle style="fill:url(#XMLID_11_);" cx="250.8" cy="172.1" r="155"/>
<linearGradient id="XMLID_12_" gradientUnits="userSpaceOnUse" x1="152.6294" y1="73.9604" x2="201.3432" y2="122.6743">
	<stop  offset="0" style="stop-color:#FFFFFF"/>
	<stop  offset="1" style="stop-color:#FF0000"/>
</linearGradient>
<!--  3 wrong reflections deleted. If here are reflections, these parts have to be bright, too.
<path style="fill:url(#XMLID_12_);" d="M124.6,211.9c0-91.7,74.3-166,166-166c6.2,0,12.3,0.3,18.3,1c-17.7-8.2-37.3-12.8-58.1-12.8
	c-76.2,0-138,61.8-138,138c0,20.7,4.6,40.4,12.8,58.1C124.9,224.2,124.6,218.1,124.6,211.9z"/>
-->
<g>
	<defs>
		<path id="XMLID_3_" d="M161,217.4c-24.6-48.8-51.8-84.9-61.4-81.7l0-0.1c-49.1,8.8-86.4,51.7-86.4,103.4c0,58,47,105,105,105
			c27.9,0,53.3-10.9,72.2-28.7l0-0.1C198,308.6,185.2,265.6,161,217.4z"/>

	</defs>
	<clipPath id="XMLID_13_">
		<use xlink:href="#XMLID_3_" />
	</clipPath>
	<g style="clip-path:url(#XMLID_13_);">
		<radialGradient id="XMLID_14_" cx="157.0962" cy="275.9526" r="111.7229" gradientUnits="userSpaceOnUse">
			<stop  offset="0" style="stop-color:#FFFFFF"/>
			<stop  offset="0.2293" style="stop-color:#FBFBFB"/>
			<stop  offset="0.4579" style="stop-color:#EFEFEF"/>

			<stop  offset="0.6864" style="stop-color:#DBDBDB"/>
			<stop  offset="0.9135" style="stop-color:#BFBFBF"/>
			<stop  offset="1" style="stop-color:#B3B3B3"/>
		</radialGradient>
		<circle style="fill:url(#XMLID_14_);" cx="118.1" cy="239" r="105"/>
		<linearGradient id="XMLID_15_" gradientUnits="userSpaceOnUse" x1="51.5962" y1="172.4526" x2="84.5962" y2="205.4526">
			<stop  offset="0" style="stop-color:#FFFFFF"/>
			<stop  offset="1" style="stop-color:#B3B3B3"/>
		</linearGradient>

<!--		<path style="fill:url(#XMLID_15_);" d="M32.6,265.9c0-62.1,50.3-112.5,112.5-112.5c4.2,0,8.3,0.2,12.4,0.7
			c-12-5.6-25.3-8.7-39.3-8.7c-51.6,0-93.5,41.9-93.5,93.5c0,14.1,3.1,27.4,8.7,39.3C32.8,274.2,32.6,270.1,32.6,265.9z"/>
-->
	</g>
</g>
<g>
	<defs>
		<path id="XMLID_7_" d="M401.5,135.5L401.5,135.5c-10.1-1.8-36.8,33.9-61,81.9c-23.8,47.3-36.5,89.4-29.7,97.4l0,0c0,0,0,0,0,0
			c0.2,0.2,0.4,0.4,0.6,0.6c18.8,17.8,44.2,28.6,72.1,28.6c58,0,105-47,105-105C488.5,187.1,451,144,401.5,135.5z"/>
	</defs>
	<clipPath id="XMLID_16_">
		<use xlink:href="#XMLID_7_" />
	</clipPath>

	<g style="clip-path:url(#XMLID_16_);">
		<radialGradient id="XMLID_17_" cx="422.5273" cy="275.9526" r="111.7229" gradientUnits="userSpaceOnUse">
			<stop  offset="0" style="stop-color:#FFFFFF"/>
			<stop  offset="0.2293" style="stop-color:#FBFBFB"/>
			<stop  offset="0.4579" style="stop-color:#EFEFEF"/>
			<stop  offset="0.6864" style="stop-color:#DBDBDB"/>
			<stop  offset="0.9135" style="stop-color:#BFBFBF"/>
			<stop  offset="1" style="stop-color:#B3B3B3"/>
		</radialGradient>

		<circle style="fill:url(#XMLID_17_);" cx="383.5" cy="239" r="105"/>
		<linearGradient id="XMLID_18_" gradientUnits="userSpaceOnUse" x1="317.0273" y1="172.4526" x2="350.0273" y2="205.4526">
			<stop  offset="0" style="stop-color:#FFFFFF"/>
			<stop  offset="1" style="stop-color:#B3B3B3"/>
		</linearGradient>
<!--		<path style="fill:url(#XMLID_18_);" d="M298,265.9c0-62.1,50.3-112.5,112.5-112.5c4.2,0,8.3,0.2,12.4,0.7
			c-12-5.6-25.3-8.7-39.3-8.7c-51.6,0-93.5,41.9-93.5,93.5c0,14.1,3.1,27.4,8.7,39.3C298.3,274.2,298,270.1,298,265.9z"/>
-->
	</g>
</g>
<rect style="fill:none;" width="500" height="360"/>
</svg>
